<svg width="18" height="16" viewBox="0 0 18 16" fill="none" xmlns="http://www.w3.org/2000/svg">
<path d="M14.5297 0.850006C14.5613 0.879214 14.6011 0.920925 14.6429 0.967194C14.6854 1.01419 14.7269 1.06194 14.7572 1.09805C14.7723 1.11602 14.7848 1.13165 14.7933 1.142L17.3119 5.19669H17.3129L17.3392 5.27188L17.3422 5.2963V5.29532L17.349 5.36563V5.37247L17.3431 5.41641C17.3321 5.49001 17.3028 5.55997 17.2582 5.61954L9.39978 15.5717L9.3949 15.5785C9.39264 15.5815 9.38494 15.5904 9.37048 15.6039C9.35689 15.6166 9.3395 15.6307 9.3197 15.6449L9.29333 15.6615C9.25 15.6882 9.21939 15.7028 9.18689 15.7143L9.1449 15.7289C9.07939 15.7453 9.03864 15.7504 9.00037 15.7504C8.96133 15.7504 8.91725 15.7441 8.85974 15.7299L8.83142 15.7211H8.8324C8.77698 15.7009 8.74668 15.6859 8.72009 15.6693H8.71912L8.68396 15.6469C8.66362 15.6327 8.64575 15.6184 8.63025 15.6039L8.59021 15.56L8.58044 15.5463H8.58142L8.57263 15.5356L0.725952 5.5961L0.68103 5.51016L0.670288 5.48087H0.671265C0.646962 5.4061 0.645189 5.32582 0.667358 5.2504L0.677124 5.22305C0.688376 5.19124 0.703284 5.16091 0.721069 5.13223L0.732788 5.11465L0.752319 5.09122L3.92517 0.850006H14.5297ZM6.63025 6.27481L8.76208 13.0258L9.00037 13.7807L9.23865 13.0258L11.3705 6.27579L11.474 5.94962H6.52771L6.63025 6.27481ZM2.44568 6.35489L6.87146 11.9613L7.30603 11.7309L5.5365 6.12442L5.48083 5.94962H2.12634L2.44568 6.35489ZM12.4652 6.12442L10.6947 11.7309L11.1293 11.9613L15.5551 6.35489L15.8744 5.94962H12.5199L12.4652 6.12442ZM3.86462 2.84024L2.38318 4.85196L2.08923 5.2504H5.16541L5.04138 4.91348L4.30017 2.90274L4.14001 2.46719L3.86462 2.84024ZM8.79919 2.5336L7.09021 4.85196L6.79724 5.2504H11.2035L10.9095 4.85196L9.20154 2.5336L9.00037 2.26016L8.79919 2.5336ZM14.2748 2.85391L13.1556 4.8793L12.9506 5.2504H16.0355L15.8304 4.8793L14.7123 2.85391L14.4935 2.45743L14.2748 2.85391ZM10.2289 2.34805L11.8451 4.54141L12.0765 4.85489L12.265 4.51407L13.4769 2.32071L13.682 1.94962H9.93494L10.2289 2.34805ZM5.11267 2.28653L5.85388 4.29727L6.01404 4.73282L6.28943 4.35977L7.77185 2.34805L8.06482 1.94962H4.98962L5.11267 2.28653Z" fill="#C47000" stroke="#C47000" stroke-width="0.5"/>
</svg>
