<svg width="18" height="18" viewBox="0 0 18 18" fill="none" xmlns="http://www.w3.org/2000/svg">
<path d="M13.3073 1.99968C13.5701 2.00145 13.8307 2.0363 14.0836 2.10124L11.7067 4.48015L11.3531 4.83366L13.7262 7.20671L16.4576 4.47527C16.523 4.72457 16.5602 4.9831 16.5602 5.24968C16.5602 6.11163 16.2175 6.93902 15.608 7.54851C14.9989 8.15759 14.1726 8.49836 13.3112 8.4987C12.8083 8.49511 12.313 8.3743 11.8658 8.14421L11.5416 7.97722L11.2838 8.23601L10.1666 9.3532L9.80823 9.71062L10.1705 10.0641C11.7659 11.6202 13.2692 13.2686 14.6715 15.0007V15.0016L15.3463 15.8385L14.7311 16.4538L13.8942 15.778C12.1622 14.3757 10.5137 12.8733 8.95764 11.278L8.60413 10.9147L8.2467 11.2731L2.89319 16.6266L1.93323 15.6667L10.5797 7.02019L10.4176 6.69792C10.1936 6.25291 10.0602 5.76555 10.0602 5.24968C10.0603 4.38792 10.402 3.56123 11.0114 2.95183C11.6202 2.34295 12.4462 2.00037 13.3073 1.99968ZM1.7926 1.60905C2.11123 2.25927 2.75666 2.83354 3.7262 2.83366C4.25663 2.83366 4.76519 3.04453 5.14026 3.4196C5.51533 3.79467 5.7262 4.30323 5.7262 4.83366C5.72615 5.08599 5.67516 5.32939 5.58459 5.56023L5.44885 5.90398L5.73889 6.13445C6.21068 6.50897 6.6757 6.89185 7.13635 7.27995L6.17346 8.24284C5.78537 7.78208 5.40167 7.31713 5.02698 6.84538L4.79651 6.55437L4.45081 6.69206C4.21951 6.78394 3.97311 6.83122 3.72424 6.83269C2.15977 6.83146 0.893188 5.56444 0.893188 3.99968C0.893276 3.1583 1.23243 2.27731 1.7926 1.60905Z" fill="#C47000" stroke="#C47000"/>
</svg>
