<svg width="26" height="26" viewBox="0 0 26 26" fill="none" xmlns="http://www.w3.org/2000/svg">
<g clip-path="url(#clip0_2_722)">
<path opacity="0.2" d="M26 14C26 20.627 20.627 26 14 26C7.373 26 2 20.627 2 14C2 7.373 7.373 2 14 2C20.627 2 26 7.373 26 14Z" fill="#C47000"/>
<path d="M6.712 5.5H5.5C5.36739 5.5 5.24021 5.44732 5.14645 5.35355C5.05268 5.25979 5 5.13261 5 5C5 4.86739 5.05268 4.74021 5.14645 4.64645C5.24021 4.55268 5.36739 4.5 5.5 4.5H7.103C7.21453 4.50003 7.32285 4.53735 7.41073 4.60602C7.49861 4.6747 7.56101 4.77078 7.588 4.879L9.485 12.479C9.51367 12.6064 9.49135 12.74 9.42281 12.8512C9.35427 12.9623 9.24495 13.0423 9.11823 13.0739C8.99151 13.1055 8.85745 13.0863 8.74472 13.0203C8.63199 12.9544 8.54954 12.847 8.515 12.721L6.712 5.5Z" fill="#C47000"/>
<path fill-rule="evenodd" clip-rule="evenodd" d="M18.4951 10.5H10.5051C10.3544 10.5 10.2054 10.5167 10.0581 10.55C9.53816 10.6719 9.08763 10.9946 8.80504 11.4478C8.52245 11.9009 8.43078 12.4475 8.55009 12.968L9.33309 16.429C9.43269 16.874 9.68066 17.272 10.0363 17.5574C10.3919 17.8429 10.8341 17.999 11.2901 18H17.7131C18.1686 17.9986 18.6102 17.8425 18.9654 17.5572C19.3206 17.272 19.5684 16.8745 19.6681 16.43L20.4511 12.968C20.4844 12.8207 20.5011 12.671 20.5011 12.519C20.5023 12.2547 20.4513 11.9928 20.3512 11.7482C20.251 11.5036 20.1036 11.2812 19.9173 11.0937C19.7311 10.9061 19.5097 10.7572 19.2658 10.6553C19.022 10.5534 18.7594 10.5007 18.4951 10.5ZM10.2841 11.525C10.3572 11.5083 10.4321 11.4999 10.5071 11.5H18.4961C18.6485 11.5008 18.7988 11.5361 18.9358 11.6031C19.0727 11.6701 19.1928 11.7672 19.287 11.887C19.3812 12.0069 19.4471 12.1465 19.4798 12.2954C19.5126 12.4443 19.5113 12.5987 19.4761 12.747L18.6921 16.209C18.6425 16.4324 18.5185 16.6322 18.3405 16.7759C18.1624 16.9197 17.9409 16.9986 17.7121 17H11.2901C10.8221 17 10.4151 16.672 10.3101 16.209L9.52709 12.747C9.4664 12.4846 9.51193 12.2089 9.65375 11.98C9.79556 11.7511 10.0222 11.5875 10.2841 11.525Z" fill="#C47000"/>
<path d="M20 19.75C20 19.9798 19.9547 20.2074 19.8668 20.4197C19.7788 20.632 19.6499 20.8249 19.4874 20.9874C19.3249 21.1499 19.132 21.2788 18.9197 21.3668C18.7074 21.4547 18.4798 21.5 18.25 21.5C18.0202 21.5 17.7926 21.4547 17.5803 21.3668C17.368 21.2788 17.1751 21.1499 17.0126 20.9874C16.8501 20.8249 16.7212 20.632 16.6332 20.4197C16.5453 20.2074 16.5 19.9798 16.5 19.75C16.5 19.2859 16.6844 18.8408 17.0126 18.5126C17.3408 18.1844 17.7859 18 18.25 18C18.7141 18 19.1592 18.1844 19.4874 18.5126C19.8156 18.8408 20 19.2859 20 19.75ZM13 19.75C13 20.2141 12.8156 20.6592 12.4874 20.9874C12.1592 21.3156 11.7141 21.5 11.25 21.5C10.7859 21.5 10.3408 21.3156 10.0126 20.9874C9.68437 20.6592 9.5 20.2141 9.5 19.75C9.5 19.2859 9.68437 18.8408 10.0126 18.5126C10.3408 18.1844 10.7859 18 11.25 18C11.7141 18 12.1592 18.1844 12.4874 18.5126C12.8156 18.8408 13 19.2859 13 19.75Z" fill="#C47000"/>
<path fill-rule="evenodd" clip-rule="evenodd" d="M13 24.5C19.351 24.5 24.5 19.351 24.5 13C24.5 6.649 19.351 1.5 13 1.5C6.649 1.5 1.5 6.649 1.5 13C1.5 19.351 6.649 24.5 13 24.5ZM13 25.5C19.904 25.5 25.5 19.904 25.5 13C25.5 6.096 19.904 0.5 13 0.5C6.096 0.5 0.5 6.096 0.5 13C0.5 19.904 6.096 25.5 13 25.5Z" fill="#C47000"/>
</g>
<defs>
<clipPath id="clip0_2_722">
<rect width="26" height="26" fill="white"/>
</clipPath>
</defs>
</svg>
