<svg width="16" height="15" viewBox="0 0 16 15" fill="none" xmlns="http://www.w3.org/2000/svg">
<mask id="path-1-inside-1_2_740" fill="white">
<path d="M4.73607 11.3333H13.7102C13.838 11.3333 13.9555 11.28 14.0627 11.1733C14.17 11.0667 14.2233 10.9492 14.2227 10.8208V1.84583C14.2227 1.71806 14.1694 1.60056 14.0627 1.49334C13.9561 1.38611 13.8383 1.33278 13.7094 1.33334H12.5561V6.43L10.8894 5.43584L9.22274 6.43V1.33334H4.73607C4.60774 1.33334 4.48996 1.38667 4.38274 1.49334C4.27552 1.6 4.22218 1.7175 4.22274 1.84583V10.8208C4.22274 10.9486 4.27607 11.0661 4.38274 11.1733C4.48941 11.2806 4.60691 11.3339 4.73524 11.3333M4.73524 12.1667C4.35191 12.1667 4.03163 12.0383 3.77441 11.7817C3.51718 11.525 3.38885 11.2047 3.38941 10.8208V1.84583C3.38941 1.4625 3.51802 1.14222 3.77524 0.885002C4.03246 0.627779 4.35274 0.499446 4.73607 0.500002H13.7102C14.0936 0.500002 14.4138 0.628335 14.6711 0.885002C14.9283 1.14167 15.0566 1.46195 15.0561 1.84583V10.8208C15.0561 11.2042 14.9277 11.5242 14.6711 11.7808C14.4144 12.0375 14.0939 12.1661 13.7094 12.1667H4.73524ZM2.23524 14.6667C1.85191 14.6667 1.53163 14.5383 1.27441 14.2817C1.01718 14.025 0.888851 13.7047 0.889406 13.3208V3.5125H1.72274V13.3208C1.72274 13.4486 1.77607 13.5661 1.88274 13.6733C1.98941 13.7806 2.10691 13.8339 2.23524 13.8333H12.0436V14.6667H2.23524ZM4.73607 1.33334H4.22274H14.2227H4.73607Z"/>
</mask>
<path d="M4.73607 11.3333H13.7102C13.838 11.3333 13.9555 11.28 14.0627 11.1733C14.17 11.0667 14.2233 10.9492 14.2227 10.8208V1.84583C14.2227 1.71806 14.1694 1.60056 14.0627 1.49334C13.9561 1.38611 13.8383 1.33278 13.7094 1.33334H12.5561V6.43L10.8894 5.43584L9.22274 6.43V1.33334H4.73607C4.60774 1.33334 4.48996 1.38667 4.38274 1.49334C4.27552 1.6 4.22218 1.7175 4.22274 1.84583V10.8208C4.22274 10.9486 4.27607 11.0661 4.38274 11.1733C4.48941 11.2806 4.60691 11.3339 4.73524 11.3333M4.73524 12.1667C4.35191 12.1667 4.03163 12.0383 3.77441 11.7817C3.51718 11.525 3.38885 11.2047 3.38941 10.8208V1.84583C3.38941 1.4625 3.51802 1.14222 3.77524 0.885002C4.03246 0.627779 4.35274 0.499446 4.73607 0.500002H13.7102C14.0936 0.500002 14.4138 0.628335 14.6711 0.885002C14.9283 1.14167 15.0566 1.46195 15.0561 1.84583V10.8208C15.0561 11.2042 14.9277 11.5242 14.6711 11.7808C14.4144 12.0375 14.0939 12.1661 13.7094 12.1667H4.73524ZM2.23524 14.6667C1.85191 14.6667 1.53163 14.5383 1.27441 14.2817C1.01718 14.025 0.888851 13.7047 0.889406 13.3208V3.5125H1.72274V13.3208C1.72274 13.4486 1.77607 13.5661 1.88274 13.6733C1.98941 13.7806 2.10691 13.8339 2.23524 13.8333H12.0436V14.6667H2.23524ZM4.73607 1.33334H4.22274H14.2227H4.73607Z" fill="#C47000"/>
<path d="M9.22274 1.33334V1.83334H12.5561V1.33334V0.833335H9.22274V1.33334ZM14.2227 10.8208H13.2227L13.2227 10.8252L14.2227 10.8208ZM13.7094 1.33334V2.33334L13.7137 2.33333L13.7094 1.33334ZM12.5561 1.33334V0.333335H11.5561V1.33334H12.5561ZM12.5561 6.43L12.0438 7.28882L13.5561 8.1909V6.43H12.5561ZM10.8894 5.43584L11.4017 4.57702L10.8894 4.27144L10.3771 4.57702L10.8894 5.43584ZM9.22274 6.43H8.22274V8.1909L9.73502 7.28882L9.22274 6.43ZM9.22274 1.33334H10.2227V0.333335H9.22274V1.33334ZM4.22274 1.84583H5.22275L5.22273 1.84151L4.22274 1.84583ZM3.38941 10.8208L4.38941 10.8223V10.8208H3.38941ZM4.73607 0.500002L4.73462 1.5H4.73607V0.500002ZM15.0561 1.84583L14.0561 1.84439V1.84583H15.0561ZM13.7094 12.1667V13.1667L13.7109 13.1667L13.7094 12.1667ZM0.889406 13.3208L1.88941 13.3223V13.3208H0.889406ZM0.889406 3.5125V2.5125H-0.110594V3.5125H0.889406ZM1.72274 3.5125H2.72274V2.5125H1.72274V3.5125ZM2.23524 13.8333V12.8333L2.23091 12.8333L2.23524 13.8333ZM12.0436 13.8333H13.0436V12.8333H12.0436V13.8333ZM12.0436 14.6667V15.6667H13.0436V14.6667H12.0436ZM4.73607 11.3333V12.3333H13.7102V11.3333V10.3333H4.73607V11.3333ZM13.7102 11.3333V12.3333C14.1503 12.3333 14.5104 12.1386 14.768 11.8823L14.0627 11.1733L13.3575 10.4644C13.3741 10.4478 13.4142 10.413 13.4809 10.3827C13.5506 10.3511 13.6301 10.3333 13.7102 10.3333V11.3333ZM14.0627 11.1733L14.768 11.8823C15.0284 11.6232 15.2246 11.2599 15.2227 10.8165L14.2227 10.8208L13.2227 10.8252C13.2224 10.7445 13.24 10.6636 13.2726 10.5919C13.3037 10.5233 13.3398 10.482 13.3575 10.4644L14.0627 11.1733ZM14.2227 10.8208H15.2227V1.84583H14.2227H13.2227V10.8208H14.2227ZM14.2227 1.84583H15.2227C15.2227 1.40581 15.028 1.04572 14.7717 0.788067L14.0627 1.49334L13.3538 2.1986C13.3372 2.18195 13.3024 2.14192 13.2722 2.07519C13.2405 2.00544 13.2227 1.92596 13.2227 1.84583H14.2227ZM14.0627 1.49334L14.7717 0.788067C14.5116 0.526665 14.1479 0.331436 13.7051 0.333344L13.7094 1.33334L13.7137 2.33333C13.634 2.33367 13.5535 2.3163 13.4819 2.28387C13.4133 2.25281 13.3717 2.21663 13.3538 2.1986L14.0627 1.49334ZM13.7094 1.33334V0.333335H12.5561V1.33334V2.33334H13.7094V1.33334ZM12.5561 1.33334H11.5561V6.43H12.5561H13.5561V1.33334H12.5561ZM12.5561 6.43L13.0684 5.57119L11.4017 4.57702L10.8894 5.43584L10.3771 6.29465L12.0438 7.28882L12.5561 6.43ZM10.8894 5.43584L10.3771 4.57702L8.71046 5.57119L9.22274 6.43L9.73502 7.28882L11.4017 6.29465L10.8894 5.43584ZM9.22274 6.43H10.2227V1.33334H9.22274H8.22274V6.43H9.22274ZM9.22274 1.33334V0.333335H4.73607V1.33334V2.33334H9.22274V1.33334ZM4.73607 1.33334V0.333335C4.29667 0.333335 3.9361 0.527104 3.67747 0.784394L4.38274 1.49334L5.08801 2.20228C5.071 2.21919 5.03075 2.25406 4.964 2.28429C4.89428 2.31586 4.81527 2.33334 4.73607 2.33334V1.33334ZM4.38274 1.49334L3.67747 0.784394C3.41706 1.04346 3.22083 1.40674 3.22275 1.85016L4.22274 1.84583L5.22273 1.84151C5.22308 1.92218 5.20544 2.00312 5.17291 2.07478C5.14178 2.14335 5.10567 2.1847 5.08801 2.20228L4.38274 1.49334ZM4.22274 1.84583H3.22274V10.8208H4.22274H5.22274V1.84583H4.22274ZM4.22274 10.8208H3.22274C3.22274 11.2609 3.41749 11.621 3.6738 11.8786L4.38274 11.1733L5.09168 10.4681C5.10824 10.4847 5.14304 10.5247 5.17333 10.5915C5.20499 10.6612 5.22274 10.7407 5.22274 10.8208H4.22274ZM4.38274 11.1733L3.6738 11.8786C3.93286 12.139 4.29614 12.3352 4.73957 12.3333L4.73524 11.3333L4.73091 10.3333C4.81159 10.333 4.89252 10.3506 4.96418 10.3832C5.03276 10.4143 5.07411 10.4504 5.09168 10.4681L4.38274 11.1733ZM4.73524 12.1667V11.1667C4.60059 11.1667 4.53936 11.1323 4.48075 11.0738L3.77441 11.7817L3.06806 12.4895C3.5239 12.9444 4.10323 13.1667 4.73524 13.1667V12.1667ZM3.77441 11.7817L4.48075 11.0738C4.42339 11.0166 4.38921 10.9568 4.38941 10.8223L3.38941 10.8208L2.38941 10.8194C2.38849 11.4527 2.61098 12.0334 3.06806 12.4895L3.77441 11.7817ZM3.38941 10.8208H4.38941V1.84583H3.38941H2.38941V10.8208H3.38941ZM3.38941 1.84583H4.38941C4.38941 1.71186 4.42358 1.65087 4.48235 1.59211L3.77524 0.885002L3.06813 0.177895C2.61245 0.633578 2.38941 1.21315 2.38941 1.84583H3.38941ZM3.77524 0.885002L4.48235 1.59211C4.54073 1.53373 4.60111 1.49981 4.73462 1.5L4.73607 0.500002L4.73752 -0.499997C4.10437 -0.500915 3.5242 -0.27817 3.06813 0.177895L3.77524 0.885002ZM4.73607 0.500002V1.5H13.7102V0.500002V-0.499998H4.73607V0.500002ZM13.7102 0.500002V1.5C13.8449 1.5 13.9061 1.53439 13.9647 1.59287L14.6711 0.885002L15.3774 0.177131C14.9216 -0.27772 14.3423 -0.499998 13.7102 -0.499998V0.500002ZM14.6711 0.885002L13.9647 1.59287C14.0221 1.65011 14.0563 1.70989 14.0561 1.84439L15.0561 1.84583L16.0561 1.84728C16.057 1.214 15.8345 0.633229 15.3774 0.177131L14.6711 0.885002ZM15.0561 1.84583H14.0561V10.8208H15.0561H16.0561V1.84583H15.0561ZM15.0561 10.8208H14.0561C14.0561 10.9555 14.0217 11.016 13.964 11.0737L14.6711 11.7808L15.3782 12.4879C15.8338 12.0324 16.0561 11.4529 16.0561 10.8208H15.0561ZM14.6711 11.7808L13.964 11.0737C13.9064 11.1313 13.8451 11.1665 13.708 11.1667L13.7094 12.1667L13.7109 13.1667C14.3426 13.1658 14.9224 12.9437 15.3782 12.4879L14.6711 11.7808ZM13.7094 12.1667V11.1667H4.73524V12.1667V13.1667H13.7094V12.1667ZM2.23524 14.6667V13.6667C2.10059 13.6667 2.03936 13.6323 1.98075 13.5738L1.27441 14.2817L0.568064 14.9895C1.0239 15.4444 1.60323 15.6667 2.23524 15.6667V14.6667ZM1.27441 14.2817L1.98075 13.5738C1.92339 13.5166 1.88921 13.4568 1.88941 13.3223L0.889406 13.3208L-0.110593 13.3194C-0.111509 13.9527 0.110979 14.5334 0.568064 14.9895L1.27441 14.2817ZM0.889406 13.3208H1.88941V3.5125H0.889406H-0.110594V13.3208H0.889406ZM0.889406 3.5125V4.5125H1.72274V3.5125V2.5125H0.889406V3.5125ZM1.72274 3.5125H0.722739V13.3208H1.72274H2.72274V3.5125H1.72274ZM1.72274 13.3208H0.722739C0.722739 13.7609 0.917485 14.121 1.1738 14.3786L1.88274 13.6733L2.59168 12.9681C2.60824 12.9847 2.64304 13.0247 2.67333 13.0915C2.70499 13.1612 2.72274 13.2407 2.72274 13.3208H1.72274ZM1.88274 13.6733L1.1738 14.3786C1.43286 14.639 1.79614 14.8352 2.23957 14.8333L2.23524 13.8333L2.23091 12.8333C2.31159 12.833 2.39252 12.8506 2.46418 12.8832C2.53276 12.9143 2.5741 12.9504 2.59168 12.9681L1.88274 13.6733ZM2.23524 13.8333V14.8333H12.0436V13.8333V12.8333H2.23524V13.8333ZM12.0436 13.8333H11.0436V14.6667H12.0436H13.0436V13.8333H12.0436ZM12.0436 14.6667V13.6667H2.23524V14.6667V15.6667H12.0436V14.6667ZM4.73607 1.33334V0.333335H4.22274V1.33334V2.33334H4.73607V1.33334ZM4.22274 1.33334V2.33334H14.2227V1.33334V0.333335H4.22274V1.33334ZM14.2227 1.33334V0.333335H4.73607V1.33334V2.33334H14.2227V1.33334Z" fill="#C47000" mask="url(#path-1-inside-1_2_740)"/>
</svg>
