<svg width="16" height="19" viewBox="0 0 16 19" fill="none" xmlns="http://www.w3.org/2000/svg">
<path d="M4.21191 8.42226L6.37207 11.1234L3.48828 18.3324L0.603516 11.1234L2.76465 8.42226H4.21191ZM12.9619 8.42226L15.1221 11.1234L12.2383 18.3324L9.35352 11.1234L11.5146 8.42226H12.9619ZM1.46094 11.4066L1.44336 11.4115L1.4502 11.4281L3.12207 15.6117L3.15234 15.6059V10.9838L1.46094 11.4066ZM3.82422 15.6059L3.85449 15.6117L5.52637 11.4281L5.5332 11.4115L5.51562 11.4066L3.82422 10.9838V15.6059ZM10.2109 11.4066L10.1934 11.4115L10.2002 11.4281L11.8721 15.6117L11.9023 15.6059V10.9838L10.2109 11.4066ZM12.5742 15.6059L12.6045 15.6117L14.2764 11.4281L14.2832 11.4115L14.2656 11.4066L12.5742 10.9838V15.6059ZM3.125 9.0453L1.89844 10.5766L1.86914 10.6127L1.91406 10.601L3.14062 10.2963L3.15234 10.2934V9.01015L3.125 9.0453ZM3.82422 10.2934L3.83594 10.2963L5.05859 10.601L5.10352 10.6127L5.0752 10.5766L3.85254 9.0453L3.82422 9.01015V10.2934ZM11.875 9.0453L10.6484 10.5766L10.6191 10.6127L10.6641 10.601L11.8906 10.2963L11.9023 10.2934V9.01015L11.875 9.0453ZM12.5742 10.2934L12.5859 10.2963L13.8086 10.601L13.8535 10.6127L13.8252 10.5766L12.6025 9.0453L12.5742 9.01015V10.2934ZM14.3711 6.54726V7.68788H10.1055V6.54726H14.3711ZM5.62109 6.54726V7.68788H1.35547V6.54726H5.62109ZM12.293 0.328506C12.4518 0.324632 12.6036 0.339482 12.751 0.370499C13.3391 0.502199 13.7919 0.912837 14.0283 1.43202C14.4774 2.41542 14.088 3.8053 12.583 4.51698L12.5742 4.52089V5.81288H11.9023V4.07558L12.1152 3.99062C12.8308 3.70436 13.2353 3.30668 13.4209 2.89296C13.5832 2.53111 13.577 2.15869 13.4688 1.8412L13.417 1.70839C13.2629 1.36459 12.9737 1.11103 12.6055 1.02773H12.6045C12.2347 0.945255 11.7617 1.02324 11.2021 1.43886L10.7988 0.901749C11.3082 0.522848 11.8202 0.340131 12.293 0.328506ZM3.54297 0.329483C3.70184 0.325221 3.8538 0.340507 4.00098 0.373428C4.58903 0.505126 5.04184 0.915075 5.27832 1.43105C5.72744 2.41523 5.33805 3.8053 3.83301 4.51698L3.82422 4.52089V5.81288H3.15234V4.07558L3.36523 3.99062C4.08075 3.70436 4.48527 3.30663 4.6709 2.89296C4.85634 2.47952 4.82279 2.05215 4.66699 1.70937C4.51287 1.36635 4.22377 1.112 3.85547 1.0287H3.85449C3.4847 0.946252 3.01172 1.02287 2.45215 1.43886L2.04883 0.901749C2.55819 0.523289 3.07019 0.341878 3.54297 0.329483Z" fill="#C47000" stroke="#C47000" stroke-width="0.03125"/>
</svg>
