<svg width="25" height="25" viewBox="0 0 25 25" fill="none" xmlns="http://www.w3.org/2000/svg">
<path d="M12.5011 3.97707C13.767 2.86534 15.4156 2.28963 17.0983 2.37173C18.7811 2.45383 20.3658 3.18729 21.5174 4.41697C22.669 5.64664 23.2971 7.27607 23.2688 8.96054C23.2405 10.645 22.558 12.2524 21.3657 13.4427L15.9241 18.8854L12.5001 22.3073L4.91677 14.725L3.63552 13.4417C2.44686 12.2506 1.76749 10.6443 1.74081 8.9618C1.71412 7.2793 2.34222 5.65225 3.49251 4.42411C4.6428 3.19596 6.22528 2.4628 7.90592 2.37939C9.58657 2.29599 11.2339 2.86885 12.5001 3.97707M15.922 15.9406L19.8918 11.9698C20.3008 11.5608 20.6252 11.0752 20.8466 10.5408C21.0679 10.0064 21.1819 9.43363 21.1819 8.8552C21.1819 8.27677 21.0679 7.704 20.8466 7.1696C20.6252 6.6352 20.3008 6.14963 19.8918 5.74062C19.4828 5.3316 18.9972 5.00716 18.4628 4.7858C17.9284 4.56444 17.3556 4.45051 16.7772 4.45051C16.1988 4.45051 15.626 4.56444 15.0916 4.7858C14.5572 5.00716 14.0716 5.3316 13.6626 5.74062L12.5001 6.90312L11.3366 5.73957C10.5105 4.91354 9.39018 4.44947 8.22198 4.44947C7.05379 4.44947 5.93344 4.91354 5.1074 5.73957C4.28136 6.56561 3.8173 7.68596 3.8173 8.85416C3.8173 10.0224 4.28136 11.1427 5.1074 11.9687L6.39073 13.2521L12.5001 19.3615L15.922 15.9396" fill="#C47000"/>
</svg>
