<svg width="16" height="20" viewBox="0 0 16 20" fill="none" xmlns="http://www.w3.org/2000/svg">
<path d="M8.00004 19.1667V16.6667M8.00004 16.6667C6.23193 16.6667 4.53624 15.9643 3.286 14.7141C2.03575 13.4638 1.33337 11.7681 1.33337 10M8.00004 16.6667C9.76815 16.6667 11.4638 15.9643 12.7141 14.7141C13.9643 13.4638 14.6667 11.7681 14.6667 10M8.00004 14.1667C5.70837 14.1667 3.83337 12.3567 3.83337 10.1433V4.85668C3.83337 2.64334 5.70837 0.833344 8.00004 0.833344C10.2917 0.833344 12.1667 2.64334 12.1667 4.85668V10.1433C12.1667 12.3567 10.2917 14.1667 8.00004 14.1667Z" stroke="#C47000" stroke-width="1.5" stroke-linecap="round" stroke-linejoin="round"/>
</svg>
