<svg width="18" height="18" viewBox="0 0 18 18" fill="none" xmlns="http://www.w3.org/2000/svg">
<path d="M9.10555 11.0833C10.2561 11.0833 11.1889 10.1506 11.1889 8.99999C11.1889 7.8494 10.2561 6.91666 9.10555 6.91666C7.95496 6.91666 7.02222 7.8494 7.02222 8.99999C7.02222 10.1506 7.95496 11.0833 9.10555 11.0833Z" stroke="#C47000"/>
<path d="M7.4388 10.6667L4.52214 13.5833M7.85547 7.75L4.10547 4" stroke="#C47000" stroke-linejoin="round"/>
<path d="M13.2722 14.4167C13.9626 14.4167 14.5222 13.857 14.5222 13.1667C14.5222 12.4763 13.9626 11.9167 13.2722 11.9167C12.5819 11.9167 12.0222 12.4763 12.0222 13.1667C12.0222 13.857 12.5819 14.4167 13.2722 14.4167Z" stroke="#C47000"/>
<path d="M15.7722 10.25C16.4626 10.25 17.0222 9.69036 17.0222 9C17.0222 8.30964 16.4626 7.75 15.7722 7.75C15.0819 7.75 14.5222 8.30964 14.5222 9C14.5222 9.69036 15.0819 10.25 15.7722 10.25Z" stroke="#C47000"/>
<path d="M14.5222 9H11.1889M10.7722 10.6667L12.4389 12.3333" stroke="#C47000" stroke-linejoin="round"/>
<path d="M14.9388 5.24999C16.0894 5.24999 17.0221 4.31725 17.0221 3.16666C17.0221 2.01607 16.0894 1.08333 14.9388 1.08333C13.7882 1.08333 12.8555 2.01607 12.8555 3.16666C12.8555 4.31725 13.7882 5.24999 14.9388 5.24999Z" stroke="#C47000"/>
<path d="M13.2722 4.83333L10.7722 7.33333" stroke="#C47000" stroke-linejoin="round"/>
<path d="M3.27222 4.41666C3.96257 4.41666 4.52222 3.85701 4.52222 3.16666C4.52222 2.4763 3.96257 1.91666 3.27222 1.91666C2.58186 1.91666 2.02222 2.4763 2.02222 3.16666C2.02222 3.85701 2.58186 4.41666 3.27222 4.41666Z" stroke="#C47000"/>
<path d="M3.27218 16.9167C4.42277 16.9167 5.35551 15.9839 5.35551 14.8333C5.35551 13.6827 4.42277 12.75 3.27218 12.75C2.12158 12.75 1.18884 13.6827 1.18884 14.8333C1.18884 15.9839 2.12158 16.9167 3.27218 16.9167Z" stroke="#C47000"/>
</svg>
