<svg width="17" height="17" viewBox="0 0 17 17" fill="none" xmlns="http://www.w3.org/2000/svg">
<path d="M6.7406 1.09126C7.82721 0.83452 9.13975 0.837883 10.2299 1.09224C10.3759 1.1279 10.4846 1.26784 10.4847 1.41646V3.19771C10.4847 3.41131 10.5461 3.62087 10.6605 3.80122C10.7749 3.98142 10.9381 4.12538 11.1312 4.21626L11.1322 4.21724L15.8773 6.4399C16.0563 6.52373 16.1949 6.67527 16.2631 6.86079C16.3312 7.04629 16.3237 7.25136 16.2416 7.43111L12.514 15.5854C12.4576 15.7091 12.3667 15.8147 12.2523 15.8881C12.1379 15.9616 12.0044 16.0006 11.8685 16.0004H5.10095L4.99939 15.9926C4.89936 15.9782 4.80285 15.9422 4.71716 15.8872C4.60302 15.8137 4.5118 15.7089 4.45544 15.5854L0.727905 7.43111C0.64571 7.25129 0.637278 7.04638 0.705444 6.86079C0.773614 6.67526 0.912189 6.52375 1.09119 6.4399L5.8363 4.21724C6.03016 4.12648 6.19418 3.9819 6.30896 3.80122C6.39507 3.66564 6.45066 3.51374 6.47302 3.35591L6.48474 3.19673V1.41646C6.48484 1.26352 6.59017 1.12874 6.74158 1.09224L6.7406 1.09126ZM12.5013 6.17915C11.8361 7.85152 10.5479 9.08334 8.98474 9.29927L8.48474 9.36763L7.98572 9.29927C6.42197 9.08423 5.13349 7.85111 4.46814 6.17915L4.27185 5.68599L3.79138 5.91158L1.74939 6.86763L1.30017 7.07857L1.50623 7.52876L4.93982 15.0415L5.07361 15.3335H11.8959L12.0287 15.0415L15.4633 7.52876L15.6693 7.07857L15.2211 6.86763L13.1781 5.91158L12.6976 5.68599L12.5013 6.17915ZM8.64587 10.0854L9.90173 11.8442C9.91677 11.8653 9.92513 11.8905 9.92517 11.9165C9.92517 11.9425 9.91688 11.9685 9.90173 11.9897L8.48474 13.9731L7.06775 11.9897C7.0526 11.9685 7.04431 11.9425 7.04431 11.9165C7.04436 11.8905 7.05272 11.8653 7.06775 11.8442L8.32458 10.0854L8.48474 9.85982L8.64587 10.0854ZM9.81775 1.68306L9.35193 1.65083C9.20721 1.64087 9.06231 1.63413 8.91736 1.62935L8.48474 1.62251C8.13764 1.62251 7.84791 1.63413 7.6156 1.65083L7.15076 1.68501V3.19868C7.15067 3.53901 7.05405 3.87242 6.87146 4.15962C6.71164 4.411 6.49171 4.61756 6.23279 4.76216L6.11951 4.82076L5.3031 5.20357L4.88708 5.39888L5.04626 5.83052C5.68098 7.54344 7.021 8.66646 8.48474 8.66646C9.94819 8.66626 11.2878 7.54488 11.9242 5.82954L12.0844 5.39888L11.6674 5.20357L10.85 4.81978L10.7367 4.76118C10.4777 4.6167 10.258 4.40996 10.098 4.15865C9.93822 3.90749 9.84391 3.62123 9.82263 3.32564L9.81775 3.19771V1.68306Z" fill="#C47000" stroke="#C47000"/>
</svg>
