<svg width="18" height="20" viewBox="0 0 18 20" fill="none" xmlns="http://www.w3.org/2000/svg">
<mask id="path-1-inside-1_3_759" fill="white">
<path d="M0.375701 0.737298C0.272967 1.13952 0.377537 1.58574 0.68992 1.89824C1.08191 2.29019 1.68445 2.35511 2.14656 2.09355C2.3688 2.29471 2.59484 2.49162 2.82457 2.68417C2.81108 2.75627 2.80425 2.82946 2.80418 2.90281C2.80418 3.56781 3.35137 4.11374 4.01629 4.11374C4.20836 4.11374 4.39035 4.06804 4.55222 3.98718C4.77757 4.14011 5.00523 4.2896 5.23512 4.43562C5.21619 4.52072 5.2066 4.60762 5.20652 4.6948C5.20652 5.3598 5.75371 5.90574 6.41863 5.90574C6.71461 5.90574 6.98699 5.79745 7.19847 5.61882L7.74039 5.9362C7.72977 5.99725 7.72436 6.05909 7.72422 6.12105V7.64074L3.69804 9.97148V16.224L9.09976 19.3511L14.5014 16.224V9.97148L10.4371 7.61863V6.12109C10.4371 6.08269 10.4345 6.04507 10.4304 6.00792C10.6411 5.888 10.8466 5.77042 11.0436 5.6566C11.2477 5.81253 11.502 5.9057 11.7764 5.9057C12.4414 5.9057 12.9874 5.35976 12.9874 4.69476C12.9874 4.62183 12.9805 4.55042 12.9679 4.48085C13.2048 4.32484 13.4389 4.16469 13.6702 4.00046C13.8253 4.07292 13.9975 4.11374 14.1788 4.11374C14.8437 4.11374 15.3909 3.56781 15.3909 2.90281C15.3908 2.82703 15.3836 2.75143 15.3693 2.67702C15.5839 2.49574 15.7964 2.31193 16.0067 2.12562C16.4598 2.34882 17.0276 2.2732 17.4027 1.8982C17.7151 1.58577 17.8196 1.1396 17.7169 0.737259H16.9195C17.0765 0.928196 17.0655 1.20273 16.8863 1.38179C16.6954 1.57273 16.3961 1.57281 16.2052 1.38179C16.0261 1.20269 16.0151 0.928118 16.172 0.737259H15.3746C15.2998 1.03023 15.3355 1.34632 15.4808 1.61726C15.3253 1.75452 15.1686 1.89038 15.0107 2.02484C14.793 1.81827 14.4997 1.69066 14.1788 1.69066C13.5138 1.69066 12.9667 2.23792 12.9667 2.90285C12.9667 3.11574 13.0229 3.31624 13.1209 3.49074C12.9558 3.6058 12.7891 3.71874 12.6211 3.82953C12.4023 3.61546 12.1039 3.48265 11.7765 3.48265C11.1115 3.48265 10.5643 4.02992 10.5643 4.69484C10.5643 4.81851 10.5832 4.938 10.6184 5.0507C10.4531 5.14621 10.2768 5.2471 10.1009 5.34777C10.0614 5.30925 10.019 5.27379 9.9741 5.24167C9.71269 5.05542 9.3991 4.97285 9.08683 4.96769C8.77449 4.96253 8.45597 5.0348 8.18957 5.22175C8.15778 5.24408 8.1273 5.2682 8.09828 5.29402C7.92769 5.19351 7.75594 5.0923 7.59254 4.99628C7.61761 4.8998 7.63097 4.79878 7.63097 4.69488C7.63097 4.02988 7.08383 3.48269 6.41887 3.48269C6.10726 3.48269 5.8216 3.60281 5.6059 3.79886C5.43212 3.68891 5.25961 3.57697 5.0884 3.46308C5.17972 3.29049 5.22746 3.09819 5.22746 2.90292C5.22746 2.23788 4.68148 1.6907 4.01652 1.6907C3.69387 1.6907 3.39918 1.81976 3.18105 2.02827C2.99905 1.87397 2.81947 1.71683 2.64238 1.55691C2.76203 1.30007 2.7875 1.00886 2.71816 0.737376H1.92062C2.07758 0.928275 2.06656 1.20281 1.88742 1.38191C1.69652 1.57281 1.39719 1.57284 1.20629 1.38191C1.02722 1.20277 1.01625 0.928196 1.17316 0.737376H0.375701V0.737298ZM4.01633 2.42066C4.28679 2.42066 4.4973 2.63238 4.4973 2.90281C4.4973 3.17324 4.28687 3.38374 4.01644 3.38374C3.7459 3.38374 3.53422 3.1732 3.53422 2.90277C3.53422 2.63234 3.74594 2.42062 4.0164 2.42062L4.01633 2.42066ZM14.1787 2.42066C14.4492 2.42066 14.6609 2.63238 14.6609 2.90281C14.6609 3.17324 14.4492 3.38374 14.1787 3.38374C13.9082 3.38374 13.6965 3.1732 13.6965 2.90277C13.6965 2.63234 13.9082 2.42062 14.1787 2.42062V2.42066ZM6.41875 4.21261C6.68914 4.21261 6.9009 4.42433 6.9009 4.6948C6.9009 4.96527 6.68918 5.17574 6.41871 5.17574C6.14816 5.17574 5.93648 4.96519 5.93648 4.69476C5.93648 4.42433 6.1482 4.21261 6.41867 4.21261H6.41875ZM11.7764 4.21261C12.0468 4.21261 12.2573 4.42433 12.2573 4.6948C12.2573 4.96527 12.0468 5.17574 11.7764 5.17574C11.5059 5.17574 11.2942 4.96519 11.2942 4.69476C11.2942 4.42433 11.5059 4.21261 11.7764 4.21261H11.7764ZM9.07465 5.69749C9.25804 5.70054 9.44008 5.75749 9.55043 5.83617C9.66082 5.91476 9.70707 5.9848 9.70707 6.12101V7.19601L9.0998 6.84445L8.45426 7.21808V6.12109C8.45426 5.96132 8.5034 5.89316 8.60867 5.81933C8.71398 5.7455 8.89137 5.69453 9.07469 5.69753L9.07465 5.69749ZM8.75738 7.88617V9.1646L5.85965 10.8525L4.7441 10.2094L8.75738 7.88617ZM9.48734 7.91234L13.478 10.2224L12.3598 10.867L9.48746 9.19398L9.48734 7.91234ZM9.09719 9.81156L11.9197 11.4555L11.9196 14.7491L9.09722 16.3931L6.27472 14.7491L6.27484 11.4556L9.09726 9.81152L9.09719 9.81156ZM9.11535 10.5276L6.89336 14.3616V14.3898L9.10297 15.678L11.3125 14.3898V11.8084L9.11535 10.5276ZM4.42808 10.8699L5.54472 11.5137V14.796L4.42808 15.4397V10.87V10.8699ZM13.7714 10.896L13.7713 15.4135L12.6496 14.7669V11.5427L13.7714 10.896ZM12.2693 15.3902L13.3792 16.0301L9.48738 18.2831V17.0107L12.2693 15.3902ZM5.95012 15.4049L8.7573 17.04V18.3093L4.84285 16.0432L5.95008 15.4048L5.95012 15.4049Z"/>
</mask>
<path d="M0.375701 0.737298C0.272967 1.13952 0.377537 1.58574 0.68992 1.89824C1.08191 2.29019 1.68445 2.35511 2.14656 2.09355C2.3688 2.29471 2.59484 2.49162 2.82457 2.68417C2.81108 2.75627 2.80425 2.82946 2.80418 2.90281C2.80418 3.56781 3.35137 4.11374 4.01629 4.11374C4.20836 4.11374 4.39035 4.06804 4.55222 3.98718C4.77757 4.14011 5.00523 4.2896 5.23512 4.43562C5.21619 4.52072 5.2066 4.60762 5.20652 4.6948C5.20652 5.3598 5.75371 5.90574 6.41863 5.90574C6.71461 5.90574 6.98699 5.79745 7.19847 5.61882L7.74039 5.9362C7.72977 5.99725 7.72436 6.05909 7.72422 6.12105V7.64074L3.69804 9.97148V16.224L9.09976 19.3511L14.5014 16.224V9.97148L10.4371 7.61863V6.12109C10.4371 6.08269 10.4345 6.04507 10.4304 6.00792C10.6411 5.888 10.8466 5.77042 11.0436 5.6566C11.2477 5.81253 11.502 5.9057 11.7764 5.9057C12.4414 5.9057 12.9874 5.35976 12.9874 4.69476C12.9874 4.62183 12.9805 4.55042 12.9679 4.48085C13.2048 4.32484 13.4389 4.16469 13.6702 4.00046C13.8253 4.07292 13.9975 4.11374 14.1788 4.11374C14.8437 4.11374 15.3909 3.56781 15.3909 2.90281C15.3908 2.82703 15.3836 2.75143 15.3693 2.67702C15.5839 2.49574 15.7964 2.31193 16.0067 2.12562C16.4598 2.34882 17.0276 2.2732 17.4027 1.8982C17.7151 1.58577 17.8196 1.1396 17.7169 0.737259H16.9195C17.0765 0.928196 17.0655 1.20273 16.8863 1.38179C16.6954 1.57273 16.3961 1.57281 16.2052 1.38179C16.0261 1.20269 16.0151 0.928118 16.172 0.737259H15.3746C15.2998 1.03023 15.3355 1.34632 15.4808 1.61726C15.3253 1.75452 15.1686 1.89038 15.0107 2.02484C14.793 1.81827 14.4997 1.69066 14.1788 1.69066C13.5138 1.69066 12.9667 2.23792 12.9667 2.90285C12.9667 3.11574 13.0229 3.31624 13.1209 3.49074C12.9558 3.6058 12.7891 3.71874 12.6211 3.82953C12.4023 3.61546 12.1039 3.48265 11.7765 3.48265C11.1115 3.48265 10.5643 4.02992 10.5643 4.69484C10.5643 4.81851 10.5832 4.938 10.6184 5.0507C10.4531 5.14621 10.2768 5.2471 10.1009 5.34777C10.0614 5.30925 10.019 5.27379 9.9741 5.24167C9.71269 5.05542 9.3991 4.97285 9.08683 4.96769C8.77449 4.96253 8.45597 5.0348 8.18957 5.22175C8.15778 5.24408 8.1273 5.2682 8.09828 5.29402C7.92769 5.19351 7.75594 5.0923 7.59254 4.99628C7.61761 4.8998 7.63097 4.79878 7.63097 4.69488C7.63097 4.02988 7.08383 3.48269 6.41887 3.48269C6.10726 3.48269 5.8216 3.60281 5.6059 3.79886C5.43212 3.68891 5.25961 3.57697 5.0884 3.46308C5.17972 3.29049 5.22746 3.09819 5.22746 2.90292C5.22746 2.23788 4.68148 1.6907 4.01652 1.6907C3.69387 1.6907 3.39918 1.81976 3.18105 2.02827C2.99905 1.87397 2.81947 1.71683 2.64238 1.55691C2.76203 1.30007 2.7875 1.00886 2.71816 0.737376H1.92062C2.07758 0.928275 2.06656 1.20281 1.88742 1.38191C1.69652 1.57281 1.39719 1.57284 1.20629 1.38191C1.02722 1.20277 1.01625 0.928196 1.17316 0.737376H0.375701V0.737298ZM4.01633 2.42066C4.28679 2.42066 4.4973 2.63238 4.4973 2.90281C4.4973 3.17324 4.28687 3.38374 4.01644 3.38374C3.7459 3.38374 3.53422 3.1732 3.53422 2.90277C3.53422 2.63234 3.74594 2.42062 4.0164 2.42062L4.01633 2.42066ZM14.1787 2.42066C14.4492 2.42066 14.6609 2.63238 14.6609 2.90281C14.6609 3.17324 14.4492 3.38374 14.1787 3.38374C13.9082 3.38374 13.6965 3.1732 13.6965 2.90277C13.6965 2.63234 13.9082 2.42062 14.1787 2.42062V2.42066ZM6.41875 4.21261C6.68914 4.21261 6.9009 4.42433 6.9009 4.6948C6.9009 4.96527 6.68918 5.17574 6.41871 5.17574C6.14816 5.17574 5.93648 4.96519 5.93648 4.69476C5.93648 4.42433 6.1482 4.21261 6.41867 4.21261H6.41875ZM11.7764 4.21261C12.0468 4.21261 12.2573 4.42433 12.2573 4.6948C12.2573 4.96527 12.0468 5.17574 11.7764 5.17574C11.5059 5.17574 11.2942 4.96519 11.2942 4.69476C11.2942 4.42433 11.5059 4.21261 11.7764 4.21261H11.7764ZM9.07465 5.69749C9.25804 5.70054 9.44008 5.75749 9.55043 5.83617C9.66082 5.91476 9.70707 5.9848 9.70707 6.12101V7.19601L9.0998 6.84445L8.45426 7.21808V6.12109C8.45426 5.96132 8.5034 5.89316 8.60867 5.81933C8.71398 5.7455 8.89137 5.69453 9.07469 5.69753L9.07465 5.69749ZM8.75738 7.88617V9.1646L5.85965 10.8525L4.7441 10.2094L8.75738 7.88617ZM9.48734 7.91234L13.478 10.2224L12.3598 10.867L9.48746 9.19398L9.48734 7.91234ZM9.09719 9.81156L11.9197 11.4555L11.9196 14.7491L9.09722 16.3931L6.27472 14.7491L6.27484 11.4556L9.09726 9.81152L9.09719 9.81156ZM9.11535 10.5276L6.89336 14.3616V14.3898L9.10297 15.678L11.3125 14.3898V11.8084L9.11535 10.5276ZM4.42808 10.8699L5.54472 11.5137V14.796L4.42808 15.4397V10.87V10.8699ZM13.7714 10.896L13.7713 15.4135L12.6496 14.7669V11.5427L13.7714 10.896ZM12.2693 15.3902L13.3792 16.0301L9.48738 18.2831V17.0107L12.2693 15.3902ZM5.95012 15.4049L8.7573 17.04V18.3093L4.84285 16.0432L5.95008 15.4048L5.95012 15.4049Z" fill="#C47000" stroke="#C47000" stroke-width="0.0625" mask="url(#path-1-inside-1_3_759)"/>
</svg>
