<svg width="13" height="17" viewBox="0 0 13 17" fill="none" xmlns="http://www.w3.org/2000/svg">
<path d="M8.34766 0.833328L9.28613 2.29231L6.62109 4.36653L5.59473 3.5677L3.95508 2.29231L4.89453 0.833328H8.34766ZM11.7881 10.3314C11.7845 9.17974 11.3959 8.06232 10.6846 7.15657C10.173 6.50523 9.51526 5.99049 8.77051 5.64973L9.07031 5.41731C9.93995 5.85014 10.6825 6.50394 11.2178 7.31868C11.806 8.21419 12.1201 9.26189 12.1211 10.3333C12.1211 11.792 11.5412 13.1906 10.5098 14.222C9.47832 15.2535 8.07978 15.8333 6.62109 15.8333C5.1624 15.8333 3.76387 15.2535 2.73242 14.222C1.70097 13.1906 1.12109 11.792 1.12109 10.3333L1.13574 9.93294C1.20449 9.00233 1.50967 8.10227 2.02441 7.31868C2.55951 6.50418 3.3016 5.85014 4.1709 5.41731L4.4707 5.64973C3.72628 5.99049 3.06897 6.50546 2.55762 7.15657C1.84633 8.06232 1.45772 9.17973 1.4541 10.3314V10.3333C1.4541 13.1828 3.77162 15.5003 6.62109 15.5003C9.47057 15.5003 11.7881 13.1828 11.7881 10.3333V10.3314Z" fill="#C47000" stroke="#C47000"/>
</svg>
