<svg width="18" height="18" viewBox="0 0 18 18" fill="none" xmlns="http://www.w3.org/2000/svg">
<path fill-rule="evenodd" clip-rule="evenodd" d="M8.18748 0.75C7.0015 0.750101 5.83273 1.03382 4.7787 1.57748C3.72467 2.12115 2.81593 2.90899 2.12831 3.87528C1.44068 4.84158 0.994111 5.9583 0.825847 7.13229C0.657584 8.30627 0.772508 9.50348 1.16103 10.624C1.54956 11.7445 2.20042 12.7559 3.05931 13.5738C3.9182 14.3916 4.96022 14.9922 6.09843 15.3254C7.23664 15.6586 8.43803 15.7148 9.60237 15.4893C10.7667 15.2638 11.8602 14.7631 12.7917 14.029L15.9872 17.2245C16.1523 17.3839 16.3733 17.4721 16.6027 17.4701C16.8321 17.4681 17.0516 17.3761 17.2138 17.2138C17.3761 17.0516 17.4681 16.8321 17.4701 16.6027C17.4721 16.3733 17.3839 16.1523 17.2245 15.9873L14.029 12.7918C14.8935 11.695 15.4317 10.3771 15.5822 8.98876C15.7326 7.60042 15.4892 6.19777 14.8797 4.94133C14.2702 3.6849 13.3193 2.62544 12.1357 1.8842C10.9522 1.14297 9.58395 0.749906 8.18748 0.75ZM2.49998 8.1875C2.49998 6.67908 3.09919 5.23244 4.16581 4.16583C5.23242 3.09922 6.67906 2.5 8.18748 2.5C9.6959 2.5 11.1425 3.09922 12.2091 4.16583C13.2758 5.23244 13.875 6.67908 13.875 8.1875C13.875 9.69592 13.2758 11.1426 12.2091 12.2092C11.1425 13.2758 9.6959 13.875 8.18748 13.875C6.67906 13.875 5.23242 13.2758 4.16581 12.2092C3.09919 11.1426 2.49998 9.69592 2.49998 8.1875Z" fill="#C47000"/>
</svg>
